<svg id="Capa_1" data-name="Capa 1" xmlns="http://www.w3.org/2000/svg" viewBox="0 0 879.12 631.48"><defs><style>.cls-1{fill:#e6e6e6;}.cls-2{fill:#fff;}.cls-3{fill:#b27092;}.cls-4{fill:#3f3d56;}.cls-5{fill:#6688b0;}.cls-6{fill:#2f2e41;}.cls-7{fill:#ffb6b6;}.cls-8{fill:#ffb8b8;}</style></defs><rect id="b93b1ef9-49b5-4354-905b-d9dddde45a10" class="cls-1" x="0.27" y="0.37" width="644.72" height="412.91"/><rect id="ef7485f9-8ecd-46d9-949e-abdd8aa9e360" class="cls-2" x="18.71" y="52.15" width="607.85" height="336.69"/><rect id="b4c2a7ec-beab-40bc-b587-23a202562f78" class="cls-3" width="644.72" height="27.39"/><circle id="bd6d3ebf-cb6f-4fcb-b7cd-ad5a287d3324" class="cls-2" cx="20.35" cy="14" r="5.08"/><circle id="efb1158e-7a7d-4adb-9063-fc7dc50c76d5" class="cls-2" cx="39.62" cy="14" r="5.08"/><circle id="b51f9e19-f36b-4f29-afd5-008bb0fc20dd" class="cls-2" cx="58.89" cy="14" r="5.08"/><rect id="b636d421-4358-445b-b124-1d058e78c733" class="cls-1" x="93.5" y="79.85" width="118.89" height="128.98"/><rect id="ab9c902d-64a9-4a2b-a9ec-6dc7022c80f6" class="cls-1" x="263.19" y="79.85" width="118.89" height="128.98"/><rect id="f4a232af-026e-479b-8040-5c62e5965d9e" class="cls-1" x="432.89" y="79.85" width="118.89" height="128.98"/><rect id="ada16aa4-f84d-4851-87ee-a2852d96226a" class="cls-1" x="93.5" y="232.18" width="118.89" height="128.98"/><rect id="ebfcbe07-3b81-4d69-a4f5-6a8318d20e8d" class="cls-1" x="263.19" y="232.18" width="118.89" height="128.98"/><rect id="ead16b6d-d132-49a9-a42f-1f570e523a46" class="cls-1" x="432.89" y="232.18" width="118.89" height="128.98"/><path id="ab8ff6e3-f37e-4992-8347-ee905fdba816-108" class="cls-3" d="M291.93,265.33l21.72-8.59,2.53,42.94s4.54,13.13,3,18.18c0,0,1,8.59-1.52,9.1s-9.6,1.51-10.1,1-.5-2-.5-2-5.06,3.54-5.56,7.58c0,0-21.22,6.57-21.72.51s10.61-11.12,10.61-11.12L299,309.78Z"/><path id="e647835b-1773-4993-9de9-376235a5ef39-109" class="cls-3" d="M337.9,265.33l21.72-8.59,2.53,42.94s4.54,13.13,3,18.18c0,0,1,8.59-1.52,9.1s-9.6,1.51-10.1,1-.5-2-.5-2-5.06,3.54-5.56,7.58c0,0-21.22,6.57-21.72.51s10.6-11.12,10.6-11.12L345,309.78Z"/><path id="ee50e840-b8e9-4cc0-9b2e-64e12816c6e5-110" class="cls-4" d="M340,99.51s-4.62,12.92.74,18.75l-4.47,15.36s15.87,47.62,11.34,54.27c0,0-16.93,8.46-50.8-3l13.75-53.37-2-22.53,2.72-10.58,6.05-.6s-3.63,13.6,3,15.72,13.14-15.38,13.14-15.38Z"/><path id="b668efb4-5504-4326-941b-9be143c4d030-111" class="cls-3" d="M126.42,182.94l5.84,2.39,27.86-36.62,8.75,43,5.84-1.06c3.74-37,6.8-74.85,3-92.72L156.14,97l-9.82,31.31-4.78,21.22Z"/><path id="b699d661-049e-451c-8a7e-64343ac1c335-112" class="cls-5" d="M480.68,97.61s-8,11.08-7.58,15.54,5.44,77.33,5.44,77.33l11.85.59-3.5-52.46,2.92-14.19L497,190.48l14.57.39-13-85.68L496,97.61Z"/><path id="a4f25674-ecb7-42aa-ae9a-d508200b11eb-113" class="cls-4" d="M525.7,276c-2.11-2.54-5.75-3.91-9.24-4.65.1-.32-10.62-2.54-10.8-2.08l-4-3.22-12.42,6.45-7-4.75L479,268.92c.13-.57-10.06,1.19-10.06,1.19-1.95.07-4.43.19-7.22.41-9.75.75-10.5,26-10.5,26a39.81,39.81,0,0,1,14.12-3l2.63,30.2c13.55-1.16,27.77.19,42.5,3.5l6.91-23.74,16.09-6.25S530.7,282,525.7,276Z"/><path id="b6d7fb25-d94e-4ba0-9382-3f72a4c565e4-114" class="cls-5" d="M180.44,261.64c-1.74-2.09-4.74-3.22-7.61-3.84.08-.26-8.75-2.08-8.9-1.71l-3.33-2.65-10.23,5.31-5.75-3.91-2.67.95c.11-.47-8.29,1-8.29,1-1.6.06-3.66.16-6,.34-8,.62-8.65,21.42-8.65,21.42a33,33,0,0,1,11.63-2.44L132.86,337c11.17-1,22.88.15,35,2.88l5.69-55.59,13.25-5.15S184.56,266.58,180.44,261.64Z"/><path id="abb48a01-b3b6-4bc9-9e6f-5cc93133d8eb-115" class="cls-6" d="M749.45,277.85h57v-30.5a28.5,28.5,0,1,0-57,0Z"/><path id="f1b40e10-dbea-4491-93e9-bf21ee1afe95-116" class="cls-7" d="M724,617.19H711.75l-5.84-47.29H724Z"/><path id="f19e2682-d3fb-40a9-8809-be7b68a78ac9-117" class="cls-6" d="M727.13,613.19H703a15.39,15.39,0,0,0-15.39,15.39v.5h39.53Z"/><path id="b3618d44-3857-42e4-aed2-10e127155f21-118" class="cls-7" d="M870.56,600.83l-10.68,6-28.33-38.31,15.76-8.9Z"/><path id="a172411a-a77d-4e4f-ac70-c8342021cfb1-119" class="cls-6" d="M871.31,595.81l-21,11.87h0a15.39,15.39,0,0,0-5.84,21l.25.44,34.42-19.44Z"/><path id="bd1532c7-07e2-44c0-82ff-fc8e0d37942d-120" class="cls-6" d="M792.21,404.52l.94,4.73s2.84,2.84,1.42,4.26-1,8-1,8c.8,12.08,16.58,79.94,19.4,93.19,0,0,21.76,14.19,38.79,42.1s17.5,35,17.5,35l-18.92,8-47.3-57.24s-13.24-8-18-15.13-34.06-80.42-34.06-80.42l-16.56,76.63s1,27.91-3.31,45.89a192.29,192.29,0,0,0-4.73,34.53l-22.23-2.37s1.42-67.17,3.78-74.27c0,0-9.93-81.83,9.93-114.47l16-42.69,15.68-6Z"/><path id="e2a54528-859f-4f0e-9aca-6130773a8d3b-121" class="cls-8" d="M778.24,226.31c-29.84.51-29.84,44.9,0,45.41C808.09,271.21,808.09,226.81,778.24,226.31Z"/><path id="aeace49c-5333-476f-965d-52da8fac2318-122" class="cls-6" d="M755.27,247.84h5.08l1.38-3.46-.69,3.46h27.74l-.9-7.23,6.75,7.23h6.72v-3.92a23,23,0,1,0-46.07,0h0v4Z"/><path id="aa5a3aa9-e50b-4b43-b42d-0c1415925835-123" class="cls-4" d="M747.47,285l56.4.45L792,406.35s-66-3.48-66-23.61l6.18-17.89Z"/><path id="aca4d347-909c-4b66-b72e-6bb1477aee43-124" class="cls-7" d="M806.29,418a9.37,9.37,0,0,1,1.33-13.19,9.71,9.71,0,0,1,1.37-.93l-2.45-21.29L819.11,378l3,30.11A9.43,9.43,0,0,1,806.29,418Z"/><path id="eab38d24-ad2d-4cbe-aaaa-db975580c866-125" class="cls-4" d="M796.45,295.85l7.42-10.37s5.08-1.13,11.08,5.87,9.5,94.5,9.5,94.5l-22,5-13-62Z"/><polygon class="cls-5" points="672.13 390.74 673.77 468.48 724.1 495.07 815.74 478.7 818 397.9 759.9 377.44 672.13 390.74"/><path class="cls-4" d="M724,495.91,673,469l-1.66-78.92L760,376.62l.19.06,58.65,20.66-2.28,82ZM674.56,468l49.67,26.24L815,478l2.22-79.57-57.36-20.19L673,391.43Z"/><polygon class="cls-4" points="722.97 411.82 722.78 411.74 671.84 391.49 672.43 389.99 723.17 410.17 817.88 397.1 818.11 398.69 722.97 411.82"/><rect class="cls-4" x="722.78" y="410.99" width="1.61" height="84.09" transform="translate(-5.46 8.84) rotate(-0.7)"/><polygon class="cls-4" points="716.54 407.79 698.17 400.35 786.57 386.26 804.93 393.71 716.54 407.79"/><rect class="cls-4" x="681.98" y="407.02" width="1.61" height="23.19" transform="translate(28.28 880.19) rotate(-66.71)"/><rect class="cls-3" x="691.62" y="433.54" width="1.61" height="23.19" transform="translate(9.75 905.08) rotate(-66.71)"/><polygon class="cls-5" points="392.13 498.74 393.77 576.48 444.1 603.07 535.74 586.71 538 505.9 479.9 485.44 392.13 498.74"/><path class="cls-4" d="M444,603.91,393,577l-1.66-78.92L480,484.62l.19.06,58.65,20.66-2.28,82ZM394.56,576l49.67,26.24L535,586l2.22-79.57-57.36-20.19L393,499.43Z"/><polygon class="cls-4" points="442.97 519.82 442.78 519.74 391.84 499.49 392.43 497.99 443.17 518.17 537.88 505.1 538.11 506.69 442.97 519.82"/><rect class="cls-4" x="442.78" y="518.99" width="1.61" height="84.09" transform="translate(-6.79 5.44) rotate(-0.7)"/><polygon class="cls-4" points="432.09 513.96 418.17 508.35 506.57 494.26 520.48 499.88 432.09 513.96"/><rect class="cls-4" x="401.98" y="515.02" width="1.61" height="23.19" transform="translate(-240.19 688.31) rotate(-66.71)"/><rect class="cls-3" x="411.62" y="541.54" width="1.61" height="23.19" transform="translate(-258.71 713.2) rotate(-66.71)"/><polygon class="cls-3" points="479.56 509.4 481.46 599.64 539.88 630.51 646.27 611.51 648.88 517.71 581.44 493.96 479.56 509.4"/><path class="cls-4" d="M539.73,631.48l-59.19-31.27-1.93-91.61L581.53,493l.22.08,68.08,24-2.65,95.25Zm-57.35-32.41L540,629.53l105.33-18.8,2.57-92.37-66.58-23.44L480.51,510.2Z"/><polygon class="cls-4" points="538.58 533.87 538.35 533.77 479.22 510.26 479.91 508.53 538.81 531.95 648.75 516.78 649.01 518.63 538.58 533.87"/><rect class="cls-4" x="538.35" y="532.9" width="1.87" height="97.61" transform="translate(-7.04 6.6) rotate(-0.7)"/><polygon class="cls-4" points="526.89 527.11 509.79 520.55 612.4 504.2 629.5 510.76 526.89 527.11"/><rect class="cls-4" x="490.99" y="528.3" width="1.87" height="26.92" transform="translate(-200.2 779.34) rotate(-66.71)"/><rect class="cls-2" x="502.19" y="559.08" width="1.87" height="26.92" transform="translate(-221.71 808.23) rotate(-66.71)"/><path id="af1e2e82-f248-43bd-a869-489ddf745161-126" class="cls-7" d="M700.67,403.59a9.37,9.37,0,0,0,4.5-12.47,8.87,8.87,0,0,0-.83-1.43l11.42-18.13-9.32-9.63-15.77,25.83a9.43,9.43,0,0,0,10,15.83Z"/><path id="ed6195a6-5e50-4e12-8380-54bfefa6b2ae-127" class="cls-4" d="M756.13,289.74,748,284.35s-6.31,1.42-13,14.34-33.8,70.67-33.8,70.67l11.13,11.3L742,335.35Z"/></svg>